<?xml version="1.0" encoding="utf-8"?>
<svg xmlns="http://www.w3.org/2000/svg" style="margin: auto; background: none; display: block; shape-rendering: auto;" width="280" height="250" preserveAspectRatio="xMidYMid">
<style type="text/css">
  text {
    text-anchor: middle; font-size: 20px; opacity: 0;
  }
</style>
<g style="transform-origin: 140px 125px 0px; transform: scale(0.8);">
<g transform="translate(140,125)">
  <g transform="translate(0,0)"><g class="path" style="transform: matrix(0.01, 0, 0, 0.01, 0, 0); transform-origin: -123.447px -1.00985px 0px; animation: 2.17391s linear 0s 1 normal forwards running bounce-in-c453d005-84d5-482c-b6ca-bcb3f59f8040;"><path d="M9.51 0L5.49-13.11L4.13 0L1.14 0L4.13-17.58L8.56-17.58L12.67-4.16L16.83-17.58L21.26-17.58L23.75 0L18.82 0L17.37-12.77L13.94 0L9.51 0" fill="#0051a2" stroke="none" stroke-width="none" transform="translate(-135.89167022705078,7.7801531304253375)" style="fill: rgb(0, 81, 162);"></path></g><g class="path" style="transform: matrix(0.01, 0, 0, 0.01, 0, 0); transform-origin: -102.807px 0.700153px 0px; animation: 2.17391s linear 0.0797102s 1 normal forwards running bounce-in-c453d005-84d5-482c-b6ca-bcb3f59f8040;"><path d="M40.58-14.10L40.58 0L36.45 0L36.45-1.68L36.45-1.68Q35.72-0.68 34.69-0.20L34.69-0.20L34.69-0.20Q33.65 0.28 32.42 0.28L32.42 0.28L32.42 0.28Q30.81 0.28 29.54-0.29L29.54-0.29L29.54-0.29Q28.27-0.87 27.39-1.86L27.39-1.86L27.39-1.86Q26.51-2.86 26.05-4.20L26.05-4.20L26.05-4.20Q25.59-5.54 25.59-7.08L25.59-7.08L25.59-7.08Q25.59-8.62 26.05-9.96L26.05-9.96L26.05-9.96Q26.51-11.30 27.39-12.30L27.39-12.30L27.39-12.30Q28.27-13.29 29.54-13.87L29.54-13.87L29.54-13.87Q30.81-14.44 32.42-14.44L32.42-14.44L32.42-14.44Q33.24-14.44 33.98-14.20L33.98-14.20L33.98-14.20Q34.72-13.95 35.33-13.51L35.33-13.51L35.33-13.51Q35.95-13.06 36.42-12.43L36.42-12.43L36.42-12.43Q36.89-11.80 37.16-11.04L37.16-11.04L38.99-14.10L40.58-14.10zM36.43-7.08L36.43-7.08L36.43-7.08Q36.43-7.63 36.37-8.24L36.37-8.24L36.37-8.24Q36.32-8.85 36.18-9.45L36.18-9.45L36.18-9.45Q36.05-10.05 35.81-10.59L35.81-10.59L35.81-10.59Q35.57-11.13 35.20-11.55L35.20-11.55L35.20-11.55Q34.83-11.98 34.30-12.22L34.30-12.22L34.30-12.22Q33.78-12.46 33.08-12.46L33.08-12.46L33.08-12.46Q32.39-12.46 31.87-12.21L31.87-12.21L31.87-12.21Q31.36-11.96 30.99-11.54L30.99-11.54L30.99-11.54Q30.63-11.12 30.39-10.57L30.39-10.57L30.39-10.57Q30.15-10.02 30.02-9.42L30.02-9.42L30.02-9.42Q29.88-8.83 29.83-8.22L29.83-8.22L29.83-8.22Q29.77-7.62 29.77-7.08L29.77-7.08L29.77-7.08Q29.77-6.54 29.83-5.93L29.83-5.93L29.83-5.93Q29.88-5.32 30.02-4.72L30.02-4.72L30.02-4.72Q30.15-4.13 30.39-3.58L30.39-3.58L30.39-3.58Q30.63-3.03 30.99-2.61L30.99-2.61L30.99-2.61Q31.36-2.19 31.87-1.93L31.87-1.93L31.87-1.93Q32.39-1.68 33.08-1.68L33.08-1.68L33.08-1.68Q33.72-1.68 34.21-1.95L34.21-1.95L34.21-1.95Q34.70-2.21 35.08-2.65L35.08-2.65L35.08-2.65Q35.45-3.09 35.71-3.65L35.71-3.65L35.71-3.65Q35.96-4.21 36.12-4.81L36.12-4.81L36.12-4.81Q36.28-5.41 36.35-6.00L36.35-6.00L36.35-6.00Q36.43-6.59 36.43-7.08" fill="#0051a2" stroke="none" stroke-width="none" transform="translate(-135.89167022705078,7.7801531304253375)" style="fill: rgb(27, 117, 190);"></path></g><g class="path" style="transform: matrix(0.01, 0, 0, 0.01, 0, 0); transform-origin: -84.9517px -1.86485px 0px; animation: 2.17391s linear 0.15942s 1 normal forwards running bounce-in-c453d005-84d5-482c-b6ca-bcb3f59f8040;"><path d="M48.14-4.74L48.14 0L44.02 0L44.02-19.29L48.14-19.29L48.14-6.63L48.14-6.63Q49.16-7.36 50.14-8.24L50.14-8.24L50.14-8.24Q51.12-9.12 52.01-10.09L52.01-10.09L52.01-10.09Q52.91-11.06 53.67-12.07L53.67-12.07L53.67-12.07Q54.43-13.09 55.00-14.10L55.00-14.10L57.81-14.10L57.81-14.10Q56.96-12.66 55.79-11.22L55.79-11.22L55.79-11.22Q54.61-9.79 53.23-8.48L53.23-8.48L57.86 0L53.31 0L50.02-5.88L50.02-5.88Q49.11-5.26 48.14-4.74L48.14-4.74" fill="#0051a2" stroke="none" stroke-width="none" transform="translate(-135.89167022705078,7.7801531304253375)" style="fill: rgb(64, 142, 224);"></path></g><g class="path" style="transform: matrix(0.01, 0, 0, 0.01, 0, 0); transform-origin: -73.8117px -9.71985px 0px; animation: 2.17391s linear 0.23913s 1 normal forwards running bounce-in-c453d005-84d5-482c-b6ca-bcb3f59f8040;"><path d="M64.33-17.50L64.33-17.50L64.33-17.50Q64.33-17.04 64.15-16.63L64.15-16.63L64.15-16.63Q63.98-16.21 63.67-15.91L63.67-15.91L63.67-15.91Q63.37-15.60 62.95-15.42L62.95-15.42L62.95-15.42Q62.54-15.25 62.07-15.25L62.07-15.25L62.07-15.25Q61.61-15.25 61.20-15.42L61.20-15.42L61.20-15.42Q60.79-15.60 60.49-15.91L60.49-15.91L60.49-15.91Q60.18-16.21 60.00-16.63L60.00-16.63L60.00-16.63Q59.83-17.04 59.83-17.50L59.83-17.50L59.83-17.50Q59.83-17.97 60.00-18.38L60.00-18.38L60.00-18.38Q60.18-18.79 60.49-19.09L60.49-19.09L60.49-19.09Q60.79-19.40 61.20-19.57L61.20-19.57L61.20-19.57Q61.61-19.75 62.07-19.75L62.07-19.75L62.07-19.75Q62.54-19.75 62.95-19.57L62.95-19.57L62.95-19.57Q63.37-19.40 63.67-19.09L63.67-19.09L63.67-19.09Q63.98-18.79 64.15-18.38L64.15-18.38L64.15-18.38Q64.33-17.97 64.33-17.50" fill="#0051a2" stroke="none" stroke-width="none" transform="translate(-135.89167022705078,7.7801531304253375)" style="fill: rgb(137, 191, 248);"></path></g><g class="path" style="transform: matrix(0.01, 0, 0, 0.01, 0, 0); transform-origin: -73.8117px 0.735153px 0px; animation: 2.17391s linear 0.318841s 1 normal forwards running bounce-in-c453d005-84d5-482c-b6ca-bcb3f59f8040;"><path d="M64.15-14.09L64.15 0L60.01 0L60.01-14.09L64.15-14.09" fill="#0051a2" stroke="none" stroke-width="none" transform="translate(-135.89167022705078,7.7801531304253375)" style="fill: rgb(227, 241, 255);"></path></g><g class="path" style="transform: matrix(0.01, 0, 0, 0.01, 0, 0); transform-origin: -61.0817px 2.06015px 0px; animation: 2.17391s linear 0.398551s 1 normal forwards running bounce-in-c453d005-84d5-482c-b6ca-bcb3f59f8040;"><path d="M82.02-8.08L82.02-8.08L82.02-8.08Q82.02-6.65 81.67-5.10L81.67-5.10L81.67-5.10Q81.32-3.55 80.70-2.06L80.70-2.06L80.70-2.06Q80.08-0.57 79.21 0.74L79.21 0.74L79.21 0.74Q78.34 2.05 77.31 3.00L77.31 3.00L75.76 2.16L75.76 2.16Q76.09 1.55 76.38 0.79L76.38 0.79L76.38 0.79Q76.67 0.04 76.91-0.81L76.91-0.81L76.91-0.81Q77.15-1.66 77.34-2.56L77.34-2.56L77.34-2.56Q77.53-3.47 77.66-4.35L77.66-4.35L77.66-4.35Q77.78-5.24 77.85-6.07L77.85-6.07L77.85-6.07Q77.92-6.91 77.92-7.63L77.92-7.63L77.92-7.63Q77.92-8.11 77.88-8.65L77.88-8.65L77.88-8.65Q77.84-9.19 77.73-9.74L77.73-9.74L77.73-9.74Q77.61-10.28 77.42-10.78L77.42-10.78L77.42-10.78Q77.22-11.28 76.90-11.66L76.90-11.66L76.90-11.66Q76.57-12.04 76.12-12.27L76.12-12.27L76.12-12.27Q75.66-12.50 75.04-12.50L75.04-12.50L75.04-12.50Q74.43-12.50 73.95-12.23L73.95-12.23L73.95-12.23Q73.47-11.95 73.11-11.51L73.11-11.51L73.11-11.51Q72.74-11.06 72.48-10.49L72.48-10.49L72.48-10.49Q72.22-9.91 72.05-9.31L72.05-9.31L72.05-9.31Q71.89-8.70 71.81-8.12L71.81-8.12L71.81-8.12Q71.74-7.53 71.74-7.07L71.74-7.07L71.74 0L67.60 0L67.60-14.10L69.19-14.10L71.08-10.82L71.08-10.82Q71.42-11.63 71.94-12.30L71.94-12.30L71.94-12.30Q72.45-12.98 73.10-13.45L73.10-13.45L73.10-13.45Q73.74-13.93 74.53-14.18L74.53-14.18L74.53-14.18Q75.32-14.44 76.23-14.44L76.23-14.44L76.23-14.44Q77.70-14.44 78.78-13.96L78.78-13.96L78.78-13.96Q79.87-13.49 80.59-12.64L80.59-12.64L80.59-12.64Q81.31-11.79 81.67-10.63L81.67-10.63L81.67-10.63Q82.02-9.46 82.02-8.08" fill="#0051a2" stroke="none" stroke-width="none" transform="translate(-135.89167022705078,7.7801531304253375)" style="fill: rgb(0, 81, 162);"></path></g><g class="path" style="transform: matrix(0.01, 0, 0, 0.01, 0, 0); transform-origin: -44.4467px 3.81515px 0px; animation: 2.17391s linear 0.478261s 1 normal forwards running bounce-in-c453d005-84d5-482c-b6ca-bcb3f59f8040;"><path d="M98.94-14.10L98.94-1.70L98.94-1.70Q98.94-0.01 98.44 1.48L98.44 1.48L98.44 1.48Q97.94 2.97 96.98 4.08L96.98 4.08L96.98 4.08Q96.03 5.20 94.65 5.85L94.65 5.85L94.65 5.85Q93.26 6.51 91.49 6.51L91.49 6.51L91.49 6.51Q90.52 6.51 89.52 6.29L89.52 6.29L89.52 6.29Q88.53 6.07 87.64 5.61L87.64 5.61L87.64 5.61Q86.76 5.15 86.05 4.45L86.05 4.45L86.05 4.45Q85.35 3.75 84.95 2.80L84.95 2.80L86.73 2.12L86.73 2.12Q86.96 2.72 87.34 3.22L87.34 3.22L87.34 3.22Q87.71 3.72 88.20 4.08L88.20 4.08L88.20 4.08Q88.68 4.44 89.27 4.64L89.27 4.64L89.27 4.64Q89.86 4.85 90.50 4.85L90.50 4.85L90.50 4.85Q91.72 4.85 92.55 4.35L92.55 4.35L92.55 4.35Q93.37 3.85 93.87 3.04L93.87 3.04L93.87 3.04Q94.37 2.23 94.59 1.21L94.59 1.21L94.59 1.21Q94.81 0.20 94.81-0.85L94.81-0.85L94.81-1.68L94.81-1.68Q94.08-0.68 93.05-0.20L93.05-0.20L93.05-0.20Q92.02 0.28 90.78 0.28L90.78 0.28L90.78 0.28Q89.17 0.28 87.90-0.29L87.90-0.29L87.90-0.29Q86.63-0.87 85.75-1.86L85.75-1.86L85.75-1.86Q84.88-2.86 84.41-4.20L84.41-4.20L84.41-4.20Q83.95-5.54 83.95-7.08L83.95-7.08L83.95-7.08Q83.95-8.62 84.41-9.96L84.41-9.96L84.41-9.96Q84.88-11.30 85.75-12.30L85.75-12.30L85.75-12.30Q86.63-13.29 87.90-13.87L87.90-13.87L87.90-13.87Q89.17-14.44 90.78-14.44L90.78-14.44L90.78-14.44Q91.60-14.44 92.34-14.20L92.34-14.20L92.34-14.20Q93.08-13.95 93.70-13.51L93.70-13.51L93.70-13.51Q94.31-13.06 94.78-12.43L94.78-12.43L94.78-12.43Q95.25-11.80 95.52-11.04L95.52-11.04L97.35-14.10L98.94-14.10zM94.79-7.08L94.79-7.08L94.79-7.08Q94.79-7.63 94.73-8.24L94.73-8.24L94.73-8.24Q94.68-8.85 94.54-9.45L94.54-9.45L94.54-9.45Q94.41-10.05 94.17-10.59L94.17-10.59L94.17-10.59Q93.93-11.13 93.56-11.55L93.56-11.55L93.56-11.55Q93.19-11.98 92.66-12.22L92.66-12.22L92.66-12.22Q92.14-12.46 91.44-12.46L91.44-12.46L91.44-12.46Q90.75-12.46 90.23-12.21L90.23-12.21L90.23-12.21Q89.72-11.96 89.36-11.54L89.36-11.54L89.36-11.54Q88.99-11.12 88.75-10.57L88.75-10.57L88.75-10.57Q88.51-10.02 88.38-9.42L88.38-9.42L88.38-9.42Q88.24-8.83 88.19-8.22L88.19-8.22L88.19-8.22Q88.13-7.62 88.13-7.08L88.13-7.08L88.13-7.08Q88.13-6.54 88.19-5.93L88.19-5.93L88.19-5.93Q88.24-5.32 88.38-4.72L88.38-4.72L88.38-4.72Q88.51-4.13 88.75-3.58L88.75-3.58L88.75-3.58Q88.99-3.03 89.36-2.61L89.36-2.61L89.36-2.61Q89.72-2.19 90.23-1.93L90.23-1.93L90.23-1.93Q90.75-1.68 91.44-1.68L91.44-1.68L91.44-1.68Q92.08-1.68 92.57-1.95L92.57-1.95L92.57-1.95Q93.07-2.21 93.44-2.65L93.44-2.65L93.44-2.65Q93.81-3.09 94.07-3.65L94.07-3.65L94.07-3.65Q94.32-4.21 94.48-4.81L94.48-4.81L94.48-4.81Q94.64-5.41 94.71-6.00L94.71-6.00L94.71-6.00Q94.79-6.59 94.79-7.08" fill="#0051a2" stroke="none" stroke-width="none" transform="translate(-135.89167022705078,7.7801531304253375)" style="fill: rgb(27, 117, 190);"></path></g><g class="path" style="transform: matrix(0.01, 0, 0, 0.01, 0, 0); transform-origin: -21.0067px 3.98515px 0px; animation: 2.17391s linear 0.557971s 1 normal forwards running bounce-in-c453d005-84d5-482c-b6ca-bcb3f59f8040;"><path d="M119.23-14.10L122.08-14.10L116.96-1.70L116.96-1.70Q116.08 0.43 115.00 2.51L115.00 2.51L115.00 2.51Q113.92 4.59 112.66 6.51L112.66 6.51L111.05 5.53L111.05 5.53Q111.35 4.98 111.77 4.26L111.77 4.26L111.77 4.26Q112.18 3.54 112.59 2.77L112.59 2.77L112.59 2.77Q112.99 2.00 113.33 1.25L113.33 1.25L113.33 1.25Q113.67 0.50 113.85-0.12L113.85-0.12L107.69-14.10L111.82-14.10L116.00-4.57L119.23-14.10" fill="#0051a2" stroke="none" stroke-width="none" transform="translate(-135.89167022705078,7.7801531304253375)" style="fill: rgb(64, 142, 224);"></path></g><g class="path" style="transform: matrix(0.01, 0, 0, 0.01, 0, 0); transform-origin: -5.39167px 0.700153px 0px; animation: 2.17391s linear 0.637681s 1 normal forwards running bounce-in-c453d005-84d5-482c-b6ca-bcb3f59f8040;"><path d="M138.37-7.08L138.37-7.08L138.37-7.08Q138.37-5.98 138.07-5.02L138.07-5.02L138.07-5.02Q137.78-4.05 137.26-3.23L137.26-3.23L137.26-3.23Q136.74-2.42 136.01-1.76L136.01-1.76L136.01-1.76Q135.28-1.11 134.41-0.66L134.41-0.66L134.41-0.66Q133.53-0.21 132.54 0.04L132.54 0.04L132.54 0.04Q131.54 0.28 130.49 0.28L130.49 0.28L130.49 0.28Q129.44 0.28 128.45 0.04L128.45 0.04L128.45 0.04Q127.47-0.21 126.59-0.66L126.59-0.66L126.59-0.66Q125.72-1.11 124.99-1.76L124.99-1.76L124.99-1.76Q124.26-2.42 123.74-3.23L123.74-3.23L123.74-3.23Q123.22-4.05 122.92-5.02L122.92-5.02L122.92-5.02Q122.63-5.99 122.63-7.08L122.63-7.08L122.63-7.08Q122.63-8.17 122.92-9.14L122.92-9.14L122.92-9.14Q123.22-10.11 123.74-10.93L123.74-10.93L123.74-10.93Q124.26-11.74 124.99-12.40L124.99-12.40L124.99-12.40Q125.72-13.05 126.59-13.50L126.59-13.50L126.59-13.50Q127.47-13.95 128.45-14.20L128.45-14.20L128.45-14.20Q129.44-14.44 130.49-14.44L130.49-14.44L130.49-14.44Q131.54-14.44 132.54-14.20L132.54-14.20L132.54-14.20Q133.53-13.95 134.41-13.50L134.41-13.50L134.41-13.50Q135.28-13.05 136.01-12.40L136.01-12.40L136.01-12.40Q136.74-11.74 137.26-10.93L137.26-10.93L137.26-10.93Q137.78-10.11 138.07-9.14L138.07-9.14L138.07-9.14Q138.37-8.17 138.37-7.08zM134.17-7.08L134.17-7.08L134.17-7.08Q134.17-7.67 134.10-8.32L134.10-8.32L134.10-8.32Q134.03-8.97 133.87-9.60L133.87-9.60L133.87-9.60Q133.72-10.23 133.44-10.81L133.44-10.81L133.44-10.81Q133.17-11.39 132.76-11.82L132.76-11.82L132.76-11.82Q132.36-12.26 131.80-12.52L131.80-12.52L131.80-12.52Q131.24-12.78 130.49-12.78L130.49-12.78L130.49-12.78Q129.79-12.78 129.24-12.51L129.24-12.51L129.24-12.51Q128.69-12.24 128.28-11.80L128.28-11.80L128.28-11.80Q127.87-11.35 127.59-10.77L127.59-10.77L127.59-10.77Q127.32-10.18 127.15-9.55L127.15-9.55L127.15-9.55Q126.98-8.92 126.90-8.28L126.90-8.28L126.90-8.28Q126.83-7.64 126.83-7.08L126.83-7.08L126.83-7.08Q126.83-6.52 126.90-5.88L126.90-5.88L126.90-5.88Q126.98-5.24 127.15-4.60L127.15-4.60L127.15-4.60Q127.32-3.97 127.59-3.39L127.59-3.39L127.59-3.39Q127.87-2.81 128.28-2.36L128.28-2.36L128.28-2.36Q128.69-1.92 129.24-1.65L129.24-1.65L129.24-1.65Q129.79-1.38 130.49-1.38L130.49-1.38L130.49-1.38Q131.23-1.38 131.79-1.64L131.79-1.64L131.79-1.64Q132.35-1.90 132.76-2.34L132.76-2.34L132.76-2.34Q133.17-2.78 133.44-3.36L133.44-3.36L133.44-3.36Q133.70-3.93 133.87-4.57L133.87-4.57L133.87-4.57Q134.03-5.20 134.10-5.85L134.10-5.85L134.10-5.85Q134.17-6.49 134.17-7.08" fill="#0051a2" stroke="none" stroke-width="none" transform="translate(-135.89167022705078,7.7801531304253375)" style="fill: rgb(137, 191, 248);"></path></g><g class="path" style="transform: matrix(0.01, 0, 0, 0.01, 0, 0); transform-origin: 11.5633px 0.895153px 0px; animation: 2.17391s linear 0.717391s 1 normal forwards running bounce-in-c453d005-84d5-482c-b6ca-bcb3f59f8040;"><path d="M140.25-6.03L140.25-6.03L140.25-6.03Q140.25-6.99 140.41-8.03L140.41-8.03L140.41-8.03Q140.58-9.07 140.89-10.11L140.89-10.11L140.89-10.11Q141.20-11.15 141.64-12.16L141.64-12.16L141.64-12.16Q142.08-13.17 142.63-14.10L142.63-14.10L145.64-14.10L145.64-14.10Q145.34-13.18 145.10-12.19L145.10-12.19L145.10-12.19Q144.86-11.19 144.70-10.20L144.70-10.20L144.70-10.20Q144.53-9.20 144.44-8.25L144.44-8.25L144.44-8.25Q144.35-7.30 144.35-6.48L144.35-6.48L144.35-6.48Q144.35-6.01 144.39-5.46L144.39-5.46L144.39-5.46Q144.43-4.92 144.54-4.38L144.54-4.38L144.54-4.38Q144.65-3.83 144.85-3.33L144.85-3.33L144.85-3.33Q145.06-2.83 145.37-2.45L145.37-2.45L145.37-2.45Q145.69-2.06 146.15-1.84L146.15-1.84L146.15-1.84Q146.61-1.61 147.23-1.61L147.23-1.61L147.23-1.61Q147.84-1.61 148.32-1.89L148.32-1.89L148.32-1.89Q148.80-2.16 149.17-2.61L149.17-2.61L149.17-2.61Q149.54-3.05 149.79-3.63L149.79-3.63L149.79-3.63Q150.05-4.20 150.21-4.80L150.21-4.80L150.21-4.80Q150.38-5.41 150.46-5.99L150.46-5.99L150.46-5.99Q150.54-6.57 150.54-7.03L150.54-7.03L150.54-14.10L154.66-14.10L154.66 0L153.08 0L151.18-3.28L151.18-3.28Q150.83-2.47 150.32-1.80L150.32-1.80L150.32-1.80Q149.82-1.14 149.17-0.66L149.17-0.66L149.17-0.66Q148.52-0.18 147.74 0.07L147.74 0.07L147.74 0.07Q146.95 0.33 146.03 0.33L146.03 0.33L146.03 0.33Q144.57 0.33 143.48-0.15L143.48-0.15L143.48-0.15Q142.40-0.62 141.67-1.46L141.67-1.46L141.67-1.46Q140.95-2.31 140.60-3.47L140.60-3.47L140.60-3.47Q140.25-4.64 140.25-6.03" fill="#0051a2" stroke="none" stroke-width="none" transform="translate(-135.89167022705078,7.7801531304253375)" style="fill: rgb(227, 241, 255);"></path></g><g class="path" style="transform: matrix(0.01, 0, 0, 0.01, 0, 0); transform-origin: 28.2083px 0.560154px 0px; animation: 2.17391s linear 0.797101s 1 normal forwards running bounce-in-c453d005-84d5-482c-b6ca-bcb3f59f8040;"><path d="M170.09-12.85L170.09-12.85L167.77-9.01L167.77-9.01Q167.63-9.50 167.40-10.11L167.40-10.11L167.40-10.11Q167.16-10.72 166.82-11.25L166.82-11.25L166.82-11.25Q166.48-11.78 166.00-12.14L166.00-12.14L166.00-12.14Q165.53-12.50 164.90-12.50L164.90-12.50L164.90-12.50Q164.33-12.50 163.91-12.21L163.91-12.21L163.91-12.21Q163.49-11.91 163.20-11.44L163.20-11.44L163.20-11.44Q162.90-10.97 162.71-10.38L162.71-10.38L162.71-10.38Q162.52-9.79 162.42-9.19L162.42-9.19L162.42-9.19Q162.32-8.58 162.28-8.03L162.28-8.03L162.28-8.03Q162.24-7.47 162.24-7.07L162.24-7.07L162.24 0L158.11 0L158.11-14.10L159.69-14.10L161.36-10.82L161.36-10.82Q161.71-11.61 162.15-12.27L162.15-12.27L162.15-12.27Q162.59-12.94 163.16-13.42L163.16-13.42L163.16-13.42Q163.73-13.90 164.46-14.17L164.46-14.17L164.46-14.17Q165.19-14.44 166.10-14.44L166.10-14.44L166.10-14.44Q166.58-14.44 167.16-14.36L167.16-14.36L167.16-14.36Q167.75-14.28 168.31-14.09L168.31-14.09L168.31-14.09Q168.87-13.90 169.35-13.60L169.35-13.60L169.35-13.60Q169.82-13.29 170.09-12.85" fill="#0051a2" stroke="none" stroke-width="none" transform="translate(-135.89167022705078,7.7801531304253375)" style="fill: rgb(0, 81, 162);"></path></g><g class="path" style="transform: matrix(0.01, 0, 0, 0.01, 0, 0); transform-origin: 49.7033px 3.81515px 0px; animation: 2.17391s linear 0.876812s 1 normal forwards running bounce-in-c453d005-84d5-482c-b6ca-bcb3f59f8040;"><path d="M193.09-14.10L193.09-1.70L193.09-1.70Q193.09-0.01 192.59 1.48L192.59 1.48L192.59 1.48Q192.09 2.97 191.14 4.08L191.14 4.08L191.14 4.08Q190.19 5.20 188.80 5.85L188.80 5.85L188.80 5.85Q187.41 6.51 185.64 6.51L185.64 6.51L185.64 6.51Q184.67 6.51 183.67 6.29L183.67 6.29L183.67 6.29Q182.68 6.07 181.79 5.61L181.79 5.61L181.79 5.61Q180.91 5.15 180.21 4.45L180.21 4.45L180.21 4.45Q179.50 3.75 179.10 2.80L179.10 2.80L180.88 2.12L180.88 2.12Q181.12 2.72 181.49 3.22L181.49 3.22L181.49 3.22Q181.86 3.72 182.35 4.08L182.35 4.08L182.35 4.08Q182.84 4.44 183.42 4.64L183.42 4.64L183.42 4.64Q184.01 4.85 184.66 4.85L184.66 4.85L184.66 4.85Q185.88 4.85 186.70 4.35L186.70 4.35L186.70 4.35Q187.52 3.85 188.02 3.04L188.02 3.04L188.02 3.04Q188.53 2.23 188.75 1.21L188.75 1.21L188.75 1.21Q188.96 0.20 188.96-0.85L188.96-0.85L188.96-1.68L188.96-1.68Q188.23-0.68 187.20-0.20L187.20-0.20L187.20-0.20Q186.17 0.28 184.94 0.28L184.94 0.28L184.94 0.28Q183.33 0.28 182.06-0.29L182.06-0.29L182.06-0.29Q180.79-0.87 179.91-1.86L179.91-1.86L179.91-1.86Q179.03-2.86 178.56-4.20L178.56-4.20L178.56-4.20Q178.10-5.54 178.10-7.08L178.10-7.08L178.10-7.08Q178.10-8.62 178.56-9.96L178.56-9.96L178.56-9.96Q179.03-11.30 179.91-12.30L179.91-12.30L179.91-12.30Q180.79-13.29 182.06-13.87L182.06-13.87L182.06-13.87Q183.33-14.44 184.94-14.44L184.94-14.44L184.94-14.44Q185.75-14.44 186.49-14.20L186.49-14.20L186.49-14.20Q187.23-13.95 187.85-13.51L187.85-13.51L187.85-13.51Q188.46-13.06 188.93-12.43L188.93-12.43L188.93-12.43Q189.40-11.80 189.67-11.04L189.67-11.04L191.50-14.10L193.09-14.10zM188.94-7.08L188.94-7.08L188.94-7.08Q188.94-7.63 188.89-8.24L188.89-8.24L188.89-8.24Q188.83-8.85 188.70-9.45L188.70-9.45L188.70-9.45Q188.56-10.05 188.32-10.59L188.32-10.59L188.32-10.59Q188.09-11.13 187.71-11.55L187.71-11.55L187.71-11.55Q187.34-11.98 186.82-12.22L186.82-12.22L186.82-12.22Q186.29-12.46 185.60-12.46L185.60-12.46L185.60-12.46Q184.90-12.46 184.39-12.21L184.39-12.21L184.39-12.21Q183.87-11.96 183.51-11.54L183.51-11.54L183.51-11.54Q183.14-11.12 182.90-10.57L182.90-10.57L182.90-10.57Q182.67-10.02 182.53-9.42L182.53-9.42L182.53-9.42Q182.40-8.83 182.34-8.22L182.34-8.22L182.34-8.22Q182.29-7.62 182.29-7.08L182.29-7.08L182.29-7.08Q182.29-6.54 182.34-5.93L182.34-5.93L182.34-5.93Q182.40-5.32 182.53-4.72L182.53-4.72L182.53-4.72Q182.67-4.13 182.90-3.58L182.90-3.58L182.90-3.58Q183.14-3.03 183.51-2.61L183.51-2.61L183.51-2.61Q183.87-2.19 184.39-1.93L184.39-1.93L184.39-1.93Q184.90-1.68 185.60-1.68L185.60-1.68L185.60-1.68Q186.23-1.68 186.72-1.95L186.72-1.95L186.72-1.95Q187.22-2.21 187.59-2.65L187.59-2.65L187.59-2.65Q187.96-3.09 188.22-3.65L188.22-3.65L188.22-3.65Q188.48-4.21 188.64-4.81L188.64-4.81L188.64-4.81Q188.79-5.41 188.87-6.00L188.87-6.00L188.87-6.00Q188.94-6.59 188.94-7.08" fill="#0051a2" stroke="none" stroke-width="none" transform="translate(-135.89167022705078,7.7801531304253375)" style="fill: rgb(27, 117, 190);"></path></g><g class="path" style="transform: matrix(0.01, 0, 0, 0.01, 0, 0); transform-origin: 67.3433px 0.700153px 0px; animation: 2.17391s linear 0.956522s 1 normal forwards running bounce-in-c453d005-84d5-482c-b6ca-bcb3f59f8040;"><path d="M210.73-14.10L210.73 0L206.60 0L206.60-1.68L206.60-1.68Q205.87-0.68 204.84-0.20L204.84-0.20L204.84-0.20Q203.81 0.28 202.58 0.28L202.58 0.28L202.58 0.28Q200.96 0.28 199.69-0.29L199.69-0.29L199.69-0.29Q198.43-0.87 197.55-1.86L197.55-1.86L197.55-1.86Q196.67-2.86 196.20-4.20L196.20-4.20L196.20-4.20Q195.74-5.54 195.74-7.08L195.74-7.08L195.74-7.08Q195.74-8.62 196.20-9.96L196.20-9.96L196.20-9.96Q196.67-11.30 197.55-12.30L197.55-12.30L197.55-12.30Q198.43-13.29 199.69-13.87L199.69-13.87L199.69-13.87Q200.96-14.44 202.58-14.44L202.58-14.44L202.58-14.44Q203.39-14.44 204.13-14.20L204.13-14.20L204.13-14.20Q204.87-13.95 205.49-13.51L205.49-13.51L205.49-13.51Q206.10-13.06 206.57-12.43L206.57-12.43L206.57-12.43Q207.04-11.80 207.31-11.04L207.31-11.04L209.14-14.10L210.73-14.10zM206.58-7.08L206.58-7.08L206.58-7.08Q206.58-7.63 206.52-8.24L206.52-8.24L206.52-8.24Q206.47-8.85 206.34-9.45L206.34-9.45L206.34-9.45Q206.20-10.05 205.96-10.59L205.96-10.59L205.96-10.59Q205.73-11.13 205.35-11.55L205.35-11.55L205.35-11.55Q204.98-11.98 204.46-12.22L204.46-12.22L204.46-12.22Q203.93-12.46 203.23-12.46L203.23-12.46L203.23-12.46Q202.54-12.46 202.03-12.21L202.03-12.21L202.03-12.21Q201.51-11.96 201.15-11.54L201.15-11.54L201.15-11.54Q200.78-11.12 200.54-10.57L200.54-10.57L200.54-10.57Q200.31-10.02 200.17-9.42L200.17-9.42L200.17-9.42Q200.04-8.83 199.98-8.22L199.98-8.22L199.98-8.22Q199.93-7.62 199.93-7.08L199.93-7.08L199.93-7.08Q199.93-6.54 199.98-5.93L199.98-5.93L199.98-5.93Q200.04-5.32 200.17-4.72L200.17-4.72L200.17-4.72Q200.31-4.13 200.54-3.58L200.54-3.58L200.54-3.58Q200.78-3.03 201.15-2.61L201.15-2.61L201.15-2.61Q201.51-2.19 202.03-1.93L202.03-1.93L202.03-1.93Q202.54-1.68 203.23-1.68L203.23-1.68L203.23-1.68Q203.87-1.68 204.36-1.95L204.36-1.95L204.36-1.95Q204.86-2.21 205.23-2.65L205.23-2.65L205.23-2.65Q205.60-3.09 205.86-3.65L205.86-3.65L205.86-3.65Q206.12-4.21 206.27-4.81L206.27-4.81L206.27-4.81Q206.43-5.41 206.51-6.00L206.51-6.00L206.51-6.00Q206.58-6.59 206.58-7.08" fill="#0051a2" stroke="none" stroke-width="none" transform="translate(-135.89167022705078,7.7801531304253375)" style="fill: rgb(64, 142, 224);"></path></g><g class="path" style="transform: matrix(0.01, 0, 0, 0.01, 0, 0); transform-origin: 89.1883px 2.06015px 0px; animation: 2.17391s linear 1.03623s 1 normal forwards running bounce-in-c453d005-84d5-482c-b6ca-bcb3f59f8040;"><path d="M235.99-8.23L235.99-8.23L235.99-8.23Q235.99-6.77 235.64-5.20L235.64-5.20L235.64-5.20Q235.30-3.63 234.69-2.13L234.69-2.13L234.69-2.13Q234.07-0.63 233.20 0.70L233.20 0.70L233.20 0.70Q232.34 2.03 231.27 3.00L231.27 3.00L229.72 2.16L229.72 2.16Q230.08 1.53 230.37 0.73L230.37 0.73L230.37 0.73Q230.66-0.06 230.91-0.94L230.91-0.94L230.91-0.94Q231.15-1.82 231.34-2.75L231.34-2.75L231.34-2.75Q231.52-3.67 231.65-4.60L231.65-4.60L231.65-4.60Q231.77-5.52 231.84-6.38L231.84-6.38L231.84-6.38Q231.90-7.25 231.90-8.01L231.90-8.01L231.90-8.01Q231.90-8.44 231.87-8.94L231.87-8.94L231.87-8.94Q231.85-9.44 231.77-9.94L231.77-9.94L231.77-9.94Q231.69-10.44 231.53-10.89L231.53-10.89L231.53-10.89Q231.37-11.35 231.10-11.71L231.10-11.71L231.10-11.71Q230.82-12.07 230.41-12.29L230.41-12.29L230.41-12.29Q230.00-12.50 229.43-12.50L229.43-12.50L229.43-12.50Q228.87-12.50 228.47-12.20L228.47-12.20L228.47-12.20Q228.08-11.90 227.80-11.43L227.80-11.43L227.80-11.43Q227.51-10.95 227.35-10.35L227.35-10.35L227.35-10.35Q227.19-9.75 227.10-9.15L227.10-9.15L227.10-9.15Q227.01-8.54 226.98-8.00L226.98-8.00L226.98-8.00Q226.95-7.45 226.95-7.07L226.95-7.07L226.95 0L222.84 0L222.84-6.57L222.84-6.57Q222.84-6.99 222.85-7.60L222.85-7.60L222.85-7.60Q222.86-8.20 222.82-8.86L222.82-8.86L222.82-8.86Q222.78-9.52 222.66-10.17L222.66-10.17L222.66-10.17Q222.55-10.83 222.30-11.34L222.30-11.34L222.30-11.34Q222.05-11.85 221.62-12.18L221.62-12.18L221.62-12.18Q221.19-12.50 220.54-12.50L220.54-12.50L220.54-12.50Q220.00-12.50 219.62-12.19L219.62-12.19L219.62-12.19Q219.25-11.89 219.00-11.41L219.00-11.41L219.00-11.41Q218.75-10.93 218.61-10.32L218.61-10.32L218.61-10.32Q218.47-9.72 218.40-9.11L218.40-9.11L218.40-9.11Q218.33-8.51 218.32-7.97L218.32-7.97L218.32-7.97Q218.31-7.42 218.31-7.07L218.31-7.07L218.31 0L214.17 0L214.17-14.10L215.76-14.10L217.27-10.82L217.27-10.82Q217.79-12.52 218.89-13.48L218.89-13.48L218.89-13.48Q220.00-14.44 221.83-14.44L221.83-14.44L221.83-14.44Q223.47-14.44 224.56-13.76L224.56-13.76L224.56-13.76Q225.65-13.07 226.27-11.54L226.27-11.54L226.27-11.54Q226.62-12.21 227.06-12.74L227.06-12.74L227.06-12.74Q227.49-13.28 228.02-13.66L228.02-13.66L228.02-13.66Q228.55-14.04 229.20-14.24L229.20-14.24L229.20-14.24Q229.85-14.44 230.63-14.44L230.63-14.44L230.63-14.44Q232.07-14.44 233.09-13.97L233.09-13.97L233.09-13.97Q234.11-13.50 234.75-12.67L234.75-12.67L234.75-12.67Q235.40-11.84 235.69-10.70L235.69-10.70L235.69-10.70Q235.99-9.56 235.99-8.23" fill="#0051a2" stroke="none" stroke-width="none" transform="translate(-135.89167022705078,7.7801531304253375)" style="fill: rgb(137, 191, 248);"></path></g><g class="path" style="transform: matrix(0.01, 0, 0, 0.01, 0, 0); transform-origin: 109.213px 0.700153px 0px; animation: 2.17391s linear 1.11594s 1 normal forwards running bounce-in-c453d005-84d5-482c-b6ca-bcb3f59f8040;"><path d="M242.13-6.69L242.13-6.69L242.13-6.69Q242.88-6.52 243.64-6.42L243.64-6.42L243.64-6.42Q244.40-6.32 245.17-6.32L245.17-6.32L245.17-6.32Q245.97-6.32 246.66-6.48L246.66-6.48L246.66-6.48Q247.35-6.63 247.86-6.99L247.86-6.99L247.86-6.99Q248.36-7.35 248.66-7.95L248.66-7.95L248.66-7.95Q248.95-8.54 248.95-9.44L248.95-9.44L248.95-9.44Q248.95-10.16 248.75-10.75L248.75-10.75L248.75-10.75Q248.56-11.35 248.18-11.78L248.18-11.78L248.18-11.78Q247.79-12.21 247.23-12.45L247.23-12.45L247.23-12.45Q246.67-12.68 245.92-12.68L245.92-12.68L245.92-12.68Q245.23-12.68 244.67-12.43L244.67-12.43L244.67-12.43Q244.12-12.17 243.70-11.74L243.70-11.74L243.70-11.74Q243.27-11.30 242.97-10.73L242.97-10.73L242.97-10.73Q242.68-10.16 242.48-9.53L242.48-9.53L242.48-9.53Q242.29-8.91 242.20-8.28L242.20-8.28L242.20-8.28Q242.11-7.64 242.11-7.08L242.11-7.08L242.11-7.08Q242.11-6.98 242.11-6.88L242.11-6.88L242.11-6.88Q242.11-6.79 242.13-6.69zM252.29-9.47L252.29-9.47L252.29-9.47Q252.29-8.61 252.01-7.93L252.01-7.93L252.01-7.93Q251.73-7.25 251.25-6.74L251.25-6.74L251.25-6.74Q250.77-6.23 250.13-5.87L250.13-5.87L250.13-5.87Q249.50-5.52 248.78-5.29L248.78-5.29L248.78-5.29Q248.06-5.07 247.30-4.97L247.30-4.97L247.30-4.97Q246.53-4.87 245.81-4.87L245.81-4.87L245.81-4.87Q244.90-4.87 244.01-5.00L244.01-5.00L244.01-5.00Q243.12-5.13 242.25-5.41L242.25-5.41L242.25-5.41Q242.38-4.60 242.68-3.88L242.68-3.88L242.68-3.88Q242.97-3.15 243.46-2.61L243.46-2.61L243.46-2.61Q243.95-2.06 244.66-1.75L244.66-1.75L244.66-1.75Q245.37-1.43 246.35-1.43L246.35-1.43L246.35-1.43Q247.00-1.43 247.58-1.62L247.58-1.62L247.58-1.62Q248.17-1.82 248.66-2.17L248.66-2.17L248.66-2.17Q249.15-2.53 249.52-3.02L249.52-3.02L249.52-3.02Q249.89-3.50 250.12-4.10L250.12-4.10L251.90-3.44L251.90-3.44Q251.50-2.48 250.80-1.78L250.80-1.78L250.80-1.78Q250.10-1.07 249.21-0.62L249.21-0.62L249.21-0.62Q248.33-0.16 247.33 0.06L247.33 0.06L247.33 0.06Q246.34 0.28 245.36 0.28L245.36 0.28L245.36 0.28Q243.75 0.28 242.38-0.26L242.38-0.26L242.38-0.26Q241.02-0.81 240.03-1.78L240.03-1.78L240.03-1.78Q239.04-2.76 238.48-4.11L238.48-4.11L238.48-4.11Q237.92-5.47 237.92-7.08L237.92-7.08L237.92-7.08Q237.92-8.69 238.48-10.05L238.48-10.05L238.48-10.05Q239.04-11.40 240.03-12.38L240.03-12.38L240.03-12.38Q241.02-13.35 242.38-13.90L242.38-13.90L242.38-13.90Q243.75-14.44 245.36-14.44L245.36-14.44L245.36-14.44Q246.14-14.44 246.96-14.33L246.96-14.33L246.96-14.33Q247.78-14.22 248.55-13.98L248.55-13.98L248.55-13.98Q249.32-13.75 250-13.37L250-13.37L250-13.37Q250.68-12.99 251.19-12.43L251.19-12.43L251.19-12.43Q251.70-11.88 252.00-11.15L252.00-11.15L252.00-11.15Q252.29-10.41 252.29-9.47" fill="#0051a2" stroke="none" stroke-width="none" transform="translate(-135.89167022705078,7.7801531304253375)" style="fill: rgb(227, 241, 255);"></path></g><g class="path" style="transform: matrix(0.01, 0, 0, 0.01, 0, 0); transform-origin: 120.758px 5.95515px 0px; animation: 2.17391s linear 1.19565s 1 normal forwards running bounce-in-c453d005-84d5-482c-b6ca-bcb3f59f8040;"><path d="M258.87-1.83L258.87-1.83L258.87-1.83Q258.87-1.37 258.70-0.96L258.70-0.96L258.70-0.96Q258.53-0.55 258.23-0.25L258.23-0.25L258.23-0.25Q257.92 0.05 257.52 0.23L257.52 0.23L257.52 0.23Q257.12 0.40 256.65 0.40L256.65 0.40L256.65 0.40Q256.19 0.40 255.79 0.23L255.79 0.23L255.79 0.23Q255.38 0.05 255.08-0.25L255.08-0.25L255.08-0.25Q254.77-0.55 254.60-0.96L254.60-0.96L254.60-0.96Q254.43-1.37 254.43-1.83L254.43-1.83L254.43-1.83Q254.43-2.28 254.60-2.69L254.60-2.69L254.60-2.69Q254.77-3.10 255.08-3.40L255.08-3.40L255.08-3.40Q255.38-3.70 255.79-3.88L255.79-3.88L255.79-3.88Q256.19-4.05 256.65-4.05L256.65-4.05L256.65-4.05Q257.12-4.05 257.52-3.88L257.52-3.88L257.52-3.88Q257.92-3.70 258.23-3.40L258.23-3.40L258.23-3.40Q258.53-3.10 258.70-2.69L258.70-2.69L258.70-2.69Q258.87-2.28 258.87-1.83" fill="#0051a2" stroke="none" stroke-width="none" transform="translate(-135.89167022705078,7.7801531304253375)" style="fill: rgb(0, 81, 162);"></path></g><g class="path" style="transform: matrix(0.01, 0, 0, 0.01, 0, 0); transform-origin: 127.768px 5.95515px 0px; animation: 2.17391s linear 1.27536s 1 normal forwards running bounce-in-c453d005-84d5-482c-b6ca-bcb3f59f8040;"><path d="M265.88-1.83L265.88-1.83L265.88-1.83Q265.88-1.37 265.71-0.96L265.71-0.96L265.71-0.96Q265.54-0.55 265.23-0.25L265.23-0.25L265.23-0.25Q264.93 0.05 264.53 0.23L264.53 0.23L264.53 0.23Q264.12 0.40 263.66 0.40L263.66 0.40L263.66 0.40Q263.20 0.40 262.79 0.23L262.79 0.23L262.79 0.23Q262.39 0.05 262.08-0.25L262.08-0.25L262.08-0.25Q261.78-0.55 261.61-0.96L261.61-0.96L261.61-0.96Q261.44-1.37 261.44-1.83L261.44-1.83L261.44-1.83Q261.44-2.28 261.61-2.69L261.61-2.69L261.61-2.69Q261.78-3.10 262.08-3.40L262.08-3.40L262.08-3.40Q262.39-3.70 262.79-3.88L262.79-3.88L262.79-3.88Q263.20-4.05 263.66-4.05L263.66-4.05L263.66-4.05Q264.12-4.05 264.53-3.88L264.53-3.88L264.53-3.88Q264.93-3.70 265.23-3.40L265.23-3.40L265.23-3.40Q265.54-3.10 265.71-2.69L265.71-2.69L265.71-2.69Q265.88-2.28 265.88-1.83" fill="#0051a2" stroke="none" stroke-width="none" transform="translate(-135.89167022705078,7.7801531304253375)" style="fill: rgb(27, 117, 190);"></path></g><g class="path" style="transform: matrix(0.01, 0, 0, 0.01, 0, 0); transform-origin: 134.773px 5.95515px 0px; animation: 2.17391s linear 1.35507s 1 normal forwards running bounce-in-c453d005-84d5-482c-b6ca-bcb3f59f8040;"><path d="M272.89-1.83L272.89-1.83L272.89-1.83Q272.89-1.37 272.72-0.96L272.72-0.96L272.72-0.96Q272.55-0.55 272.24-0.25L272.24-0.25L272.24-0.25Q271.94 0.05 271.53 0.23L271.53 0.23L271.53 0.23Q271.13 0.40 270.67 0.40L270.67 0.40L270.67 0.40Q270.20 0.40 269.80 0.23L269.80 0.23L269.80 0.23Q269.40 0.05 269.09-0.25L269.09-0.25L269.09-0.25Q268.79-0.55 268.62-0.96L268.62-0.96L268.62-0.96Q268.44-1.37 268.44-1.83L268.44-1.83L268.44-1.83Q268.44-2.28 268.62-2.69L268.62-2.69L268.62-2.69Q268.79-3.10 269.09-3.40L269.09-3.40L269.09-3.40Q269.40-3.70 269.80-3.88L269.80-3.88L269.80-3.88Q270.20-4.05 270.67-4.05L270.67-4.05L270.67-4.05Q271.13-4.05 271.53-3.88L271.53-3.88L271.53-3.88Q271.94-3.70 272.24-3.40L272.24-3.40L272.24-3.40Q272.55-3.10 272.72-2.69L272.72-2.69L272.72-2.69Q272.89-2.28 272.89-1.83" fill="#0051a2" stroke="none" stroke-width="none" transform="translate(-135.89167022705078,7.7801531304253375)" style="fill: rgb(64, 142, 224);"></path></g></g>
</g>
</g>
<style id="bounce-in-c453d005-84d5-482c-b6ca-bcb3f59f8040" data-anikit="">@keyframes bounce-in-c453d005-84d5-482c-b6ca-bcb3f59f8040
{
  0% {
    animation-timing-function: cubic-bezier(0.0383,0.3388,0.0421,0.6652);
    transform: matrix(0.01,0,0,0.01,0,0);
    opacity: 1;
  }
  4.7% {
    animation-timing-function: cubic-bezier(0.3296,0.3336,0.5772,0.6672);
    transform: matrix(0.556,0,0,0.556,0,0);
    opacity: 1;
  }
  8.4% {
    animation-timing-function: cubic-bezier(0.0781,0.1617,0.0874,0.9301);
    transform: matrix(0.979,0,0,0.979,0,0);
    opacity: 1;
  }
  12.4% {
    animation-timing-function: cubic-bezier(0.8341,0.1496,0.8634,0.7673);
    transform: matrix(1.153,0,0,1.153,0,0);
    opacity: 1;
  }
  16.3% {
    animation-timing-function: cubic-bezier(0.3264,0.3332,0.5758,0.6695);
    transform: matrix(1.008,0,0,1.008,0,0);
    opacity: 1;
  }
  21.2% {
    animation-timing-function: cubic-bezier(0.0921,0.1883,0.3277,1);
    transform: matrix(0.704,0,0,0.704,0,0);
    opacity: 1;
  }
  24.5% {
    animation-timing-function: cubic-bezier(0.6905,0.0944,0.8759,0.7624);
    transform: matrix(0.626,0,0,0.626,0,0);
    opacity: 1;
  }
  27.7% {
    animation-timing-function: cubic-bezier(0.3688,0.332,0.624,0.6684);
    transform: matrix(0.704,0,0,0.704,0,0);
    opacity: 1;
  }
  32.6% {
    animation-timing-function: cubic-bezier(0.1368,0.2364,0.2451,0.9049);
    transform: matrix(0.958,0,0,0.958,0,0);
    opacity: 1;
  }
  37.4% {
    animation-timing-function: cubic-bezier(0.5936,0.0846,0.3495,1);
    transform: matrix(1.085,0,0,1.085,0,0);
    opacity: 1;
  }
  49.5% {
    animation-timing-function: cubic-bezier(0.5522,0.0981,0.3807,1);
    transform: matrix(0.802,0,0,0.802,0,0);
    opacity: 1;
  }
  62.4% {
    animation-timing-function: cubic-bezier(0.4497,0.1349,0.4911,1);
    transform: matrix(1.044,0,0,1.044,0,0);
    opacity: 1;
  }
  74.1% {
    animation-timing-function: cubic-bezier(0.429,0,0.5239,1);
    transform: matrix(0.914,0,0,0.914,0,0);
    opacity: 1;
  }
  87% {
    animation-timing-function: cubic-bezier(0.3501,0,0.6422,1);
    transform: matrix(1.013,0,0,1.013,0,0);
    opacity: 1;
  }
  95.8% {
    animation-timing-function: cubic-bezier(0.3653,0,0.6776,1);
    transform: matrix(0.992,0,0,0.992,0,0);
    opacity: 1;
  }
  100% {
    transform: matrix(1,0,0,1,0,0);
    opacity: 1;
  }
}</style></svg>